# xmcd
#
# Track frame offsets: 
#        150
#        16860
#        34758
#        49888
#        72009
#        99421
#        118949
#        133964
#        154936
#        170928
#        189091
#
# Disc length: 2902 seconds
#
# Revision: 2
# Processed by: cddbd v1.5.2PL0 Copyright (c) Steve Scherf et al.
# Submitted via: ExactAudioCopy v1.0b3
#
DISCID=960b540b
DTITLE=Michael Messer - MOONbeat
DYEAR=1995
DGENRE=Blues
TTITLE0=No Blue In The ABC
TTITLE1=Jawbone Johnny
TTITLE2=Kilalinke
TTITLE3=Leaving Ruby
TTITLE4=Goin' To Brownsville
TTITLE5=Living By The Water
TTITLE6=Luna Hula
TTITLE7=MOONbeat
TTITLE8=Canary Bird
TTITLE9=The Rising Sun
TTITLE10=Robert Johnson's Wake - Up Jumps The Devil
EXTD=(p)(c) Appaloosa 1995
EXTT0=
EXTT1=
EXTT2=
EXTT3=
EXTT4=
EXTT5=
EXTT6=
EXTT7=
EXTT8=
EXTT9=
EXTT10=
PLAYORDER=
